<svg version="1.0" xmlns="http://www.w3.org/2000/svg"
 width="32.000000pt" height="32.000000pt" viewBox="0 0 32.000000 32.000000"
 preserveAspectRatio="xMidYMid meet">

<g transform="translate(0.000000,32.000000) scale(0.100000,-0.100000)"
fill="#000000" stroke="none">
<path d="M112 296 c-24 -7 -46 -17 -50 -23 -4 -6 -18 -13 -32 -14 -25 -4 -25
-5 -25 -104 0 -99 0 -100 25 -103 14 -2 29 -10 33 -18 12 -21 197 -20 197 0 0
9 12 16 28 18 26 3 27 4 28 73 l1 70 -4 -67 c-4 -64 -5 -68 -28 -68 -16 0 -25
6 -25 15 0 8 7 15 15 15 10 0 15 10 15 30 0 20 -5 30 -15 30 -11 0 -15 12 -15
51 0 46 2 50 22 47 13 -2 25 -13 30 -28 6 -23 7 -23 5 5 -2 24 -7 31 -27 33
-13 2 -29 10 -35 17 -5 7 -24 15 -42 18 l-31 6 24 -24 c25 -25 30 -50 15 -74
-13 -21 -33 -2 -27 24 6 22 -14 55 -32 55 -21 -1 -36 -23 -37 -51 0 -39 -22
-50 -30 -16 -9 34 9 64 48 81 38 17 28 18 -31 2z m-20 -28 c-20 -20 -14 -67
13 -93 33 -33 78 -33 112 1 21 21 25 32 20 65 -3 21 -1 39 4 39 5 0 9 -56 9
-125 l0 -125 -90 0 -90 0 0 125 c0 111 2 125 17 125 13 0 14 -3 5 -12z m88
-14 c11 -12 10 -18 -3 -32 -16 -15 -18 -15 -34 0 -13 14 -14 20 -3 32 7 9 16
16 20 16 4 0 13 -7 20 -16z m-120 -54 c0 -38 -4 -50 -15 -50 -10 0 -15 -10
-15 -30 0 -20 5 -30 15 -30 8 0 15 -7 15 -15 0 -8 -9 -15 -20 -15 -19 0 -20 7
-20 95 0 88 1 95 20 95 17 0 20 -7 20 -50z m129 -14 c9 -11 7 -15 -9 -19 -11
-3 -29 -3 -40 0 -16 4 -18 8 -9 19 6 8 19 14 29 14 10 0 23 -6 29 -14z"/>
<path d="M90 100 c0 -23 4 -30 20 -30 11 0 20 5 20 10 0 6 23 10 50 10 43 0
50 3 50 20 0 18 -7 20 -70 20 l-70 0 0 -30z"/>
</g>
</svg>
