<?xml version="1.0" standalone="no"?>
<!DOCTYPE svg PUBLIC "-//W3C//DTD SVG 20010904//EN"
 "http://www.w3.org/TR/2001/REC-SVG-20010904/DTD/svg10.dtd">
<svg version="1.0" xmlns="http://www.w3.org/2000/svg"
 width="24.000000pt" height="24.000000pt" viewBox="0 0 24.000000 24.000000"
 preserveAspectRatio="xMidYMid meet">

<g transform="translate(0.000000,24.000000) scale(0.100000,-0.100000)"
fill="#000000" stroke="none">
<path d="M108 223 c6 -2 18 -2 25 0 6 3 1 5 -13 5 -14 0 -19 -2 -12 -5z"/>
<path d="M50 211 c0 -5 -10 -11 -22 -13 -22 -3 -23 -8 -23 -83 0 -75 1 -80 23
-83 12 -2 22 -8 22 -13 0 -5 32 -9 70 -9 39 0 70 4 70 9 0 5 10 11 23 13 20 3
22 9 23 58 l1 55 -6 -49 c-3 -27 -12 -51 -18 -54 -7 -2 -13 3 -13 12 0 9 5 16
10 16 6 0 10 9 10 20 0 11 -4 20 -10 20 -5 0 -10 18 -10 40 0 44 15 53 30 18
l9 -23 0 22 c1 15 -9 27 -31 37 -38 20 -68 22 -50 4 20 -20 14 -56 -13 -74
-23 -15 -27 -15 -51 1 -19 12 -25 13 -22 3 9 -25 54 -33 83 -14 22 15 26 24
23 52 -2 19 0 30 4 26 5 -5 8 -47 6 -93 l-3 -84 -59 -3 c-40 -2 -62 1 -67 10
-5 7 -16 13 -26 13 -16 0 -18 9 -18 69 0 47 4 71 13 74 8 2 12 -9 12 -37 0
-23 -4 -41 -10 -41 -16 0 -11 -37 6 -44 24 -9 24 -9 24 37 1 23 7 59 14 80 13
34 12 37 -5 37 -11 0 -19 -4 -19 -9z"/>
<path d="M103 198 c-4 -7 -8 -22 -8 -34 -1 -16 5 -21 25 -21 20 0 26 5 25 21
0 24 -12 46 -25 46 -5 0 -12 -6 -17 -12z m33 -9 c10 -17 -13 -36 -27 -22 -12
12 -4 33 11 33 5 0 12 -5 16 -11z"/>
<path d="M70 75 c0 -16 6 -25 15 -25 8 0 15 5 15 10 0 6 16 10 35 10 24 0 35
5 35 15 0 11 -12 15 -50 15 -47 0 -50 -2 -50 -25z"/>
</g>
</svg>
